<?xml version="1.0" encoding="UTF-8" standalone="no"?>
<!-- Generator: Adobe Illustrator 16.0.0, SVG Export Plug-In . SVG Version: 6.00 Build 0)  -->

<svg
   version="1.1"
   x="0px"
   y="0px"
   width="2400"
   height="575.92804"
   viewBox="0 0 2400 575.92803"
   enable-background="new 0 0 960 866.838"
   xml:space="preserve"
   id="svg4"
   sodipodi:docname="ghostnet_logo.svg"
   inkscape:version="1.4.2 (f4327f4, 2025-05-13)"
   xmlns:inkscape="http://www.inkscape.org/namespaces/inkscape"
   xmlns:sodipodi="http://sodipodi.sourceforge.net/DTD/sodipodi-0.dtd"
   xmlns="http://www.w3.org/2000/svg"
   xmlns:svg="http://www.w3.org/2000/svg"><defs
   id="defs4" /><sodipodi:namedview
   id="namedview4"
   pagecolor="#ffffff"
   bordercolor="#000000"
   borderopacity="0.25"
   inkscape:showpageshadow="2"
   inkscape:pageopacity="0.0"
   inkscape:pagecheckerboard="true"
   inkscape:deskcolor="#d1d1d1"
   inkscape:zoom="0.5"
   inkscape:cx="1520"
   inkscape:cy="189"
   inkscape:window-width="933"
   inkscape:window-height="1211"
   inkscape:window-x="2067"
   inkscape:window-y="50"
   inkscape:window-maximized="0"
   inkscape:current-layer="svg4" />

<g
   id="g3"
   transform="scale(0.65919295)"><g
     id="Layer_3"
     opacity="0.5"
     style="opacity:1;fill:#8c5cff;fill-opacity:1;stroke:#000000;stroke-width:10;stroke-dasharray:none;stroke-opacity:1"
     transform="translate(5,5)">
	<path
   fill="#FFFFFF"
   d="m 665.778,406.842 c 2.027,0 9.876,0.659 25.751,9.134 7.004,3.74 12.765,7.511 16.405,10.111 -0.081,6.403 -1.352,19.172 -5.035,37.479 -4.086,20.307 -8.646,34.776 -10.806,39.272 -12.498,12.288 -22.749,19.186 -26.585,20.464 h -84.903 c -3.41,-1.221 -13.763,-7.858 -27.649,-22.594 -13.29,-14.103 -20.03,-25.055 -21.596,-28.85 v -9.889 c 1.427,-2.849 5.229,-9.429 13.08,-20.422 6.331,-8.864 12.322,-16.394 15.675,-20.145 4.787,-1.777 19.433,-5.417 49.255,-9.373 24.489,-3.246 47.912,-5.187 56.408,-5.187 m 0,-20.522 c -21.549,0 -109.449,9.744 -118.684,18.979 -9.236,9.234 -36.256,46.177 -36.256,53.702 0,16.417 0,5.302 0,14.537 0,15.391 48.74,70.287 68.748,70.287 h 86.874 c 11.287,0 30.869,-17.188 41.386,-27.705 8.979,-8.978 26.679,-93.373 18.47,-101.582 -5.642,-5.644 -38.99,-28.218 -60.538,-28.218 z"
   id="path1"
   style="fill:#8c5cff;fill-opacity:1;stroke:#000000;stroke-width:10;stroke-dasharray:none;stroke-opacity:1" />
	<path
   fill="#FFFFFF"
   d="m 533.769,561.313 c -11.441,-17.884 -32.702,-46.646 -47.067,-63.957 0.08,0.307 0.168,0.61 0.242,0.92 l 11.587,48.102 c 11.766,16.191 18.919,27.207 22.007,32.596 3.088,-6.911 7.645,-12.908 13.231,-17.661 z"
   id="path2"
   style="fill:#8c5cff;fill-opacity:1;stroke:#000000;stroke-width:10;stroke-dasharray:none;stroke-opacity:1" />
	<path
   fill="#FFFFFF"
   d="m 278.261,543.824 h 86.875 c 0.493,0 1.008,-0.043 1.535,-0.108 l 7.953,-27.123 c -5.06,3.952 -8.731,6.074 -10.507,6.71 h -84.904 c -3.835,-1.278 -14.086,-8.176 -26.585,-20.463 -2.159,-4.498 -6.719,-18.968 -10.805,-39.273 -3.684,-18.307 -4.955,-31.076 -5.036,-37.479 3.641,-2.601 9.401,-6.372 16.405,-10.111 15.875,-8.476 23.724,-9.135 25.751,-9.135 8.496,0 31.918,1.941 56.408,5.189 29.822,3.955 44.468,7.595 49.255,9.373 3.352,3.75 9.344,11.281 15.674,20.145 7.851,10.994 11.653,17.573 13.081,20.423 v 0.419 c 4.854,-1.562 10.002,-2.405 15.305,-2.405 h 5.216 c 0,-0.322 0,-0.639 0,-0.985 0,-7.524 -27.021,-44.467 -36.255,-53.702 -9.235,-9.235 -97.136,-18.979 -118.684,-18.979 -21.547,0 -54.895,22.573 -60.539,28.217 -8.208,8.209 9.492,92.604 18.47,101.582 10.519,10.518 30.1,27.705 41.387,27.705 z"
   id="path3"
   style="fill:#8c5cff;fill-opacity:1;stroke:#000000;stroke-width:10;stroke-dasharray:none;stroke-opacity:1" />
	<path
   fill="#FFFFFF"
   d="m 201.988,623.858 c 0,6.343 3.042,14.941 7.938,23.794 l 15.93,-13.84 c -2.275,-4.749 -3.326,-8.35 -3.346,-9.954 0,-7.205 5.961,-18.053 10.314,-25.974 5.13,-9.336 9.182,-16.71 9.182,-25.33 0,-26.91 -13.334,-49.925 -28.774,-76.573 -10.58,-18.261 -22.572,-38.958 -31.688,-63.874 -10.408,-28.447 -15.468,-58.025 -15.468,-90.422 0,-53.473 9.955,-102.353 29.586,-145.282 17.517,-38.304 42.599,-71.712 74.548,-99.297 28.995,-25.034 62.596,-44.507 99.868,-57.877 34.115,-12.239 70.135,-18.708 104.166,-18.708 34.027,0 70.037,6.469 104.136,18.706 37.251,13.369 70.83,32.841 99.806,57.875 31.926,27.583 56.987,60.991 74.491,99.296 19.615,42.929 29.562,91.811 29.562,145.287 0,32.397 -5.06,61.975 -15.468,90.422 -9.116,24.916 -21.107,45.613 -31.688,63.875 -15.439,26.647 -28.773,49.662 -28.773,76.572 0,8.62 4.052,15.994 9.182,25.33 4.353,7.92 10.313,18.768 10.313,25.97 -0.028,2.239 -2.065,8.356 -6.624,16.054 l 20.313,5.688 c 4.244,-8.118 6.832,-15.888 6.832,-21.738 0,-20.522 -19.495,-42.755 -19.495,-51.304 0,-54.383 75.93,-101.582 75.93,-230.869 C 802.759,103.634 615.843,0 474.243,0 332.643,0 145.554,103.634 145.554,341.686 c 0,129.287 75.931,176.486 75.931,230.869 -0.001,8.549 -19.497,30.781 -19.497,51.303 z"
   id="path4"
   style="fill:#8c5cff;fill-opacity:1;stroke:#000000;stroke-width:10;stroke-dasharray:none;stroke-opacity:1" />
</g><g
     id="Layer_2"
     style="fill:#8c5cff;fill-opacity:1;stroke:#000000;stroke-width:10;stroke-linejoin:bevel;stroke-dasharray:none;stroke-opacity:1"
     transform="translate(5,5)">
	<g
   id="g4"
   style="fill:#8c5cff;fill-opacity:1;stroke:#000000;stroke-width:10;stroke-linejoin:bevel;stroke-dasharray:none;stroke-opacity:1">
		<polygon
   fill="#FFFFFF"
   points="365.838,824.21 287.055,686.616 235.606,731.318 0,731.318 0,701.318 224.394,701.318 294.945,640.021 358.162,750.428 439.563,498.626 499.958,765.799 569.746,590.411 656.577,746.5 694.093,684.808 753.061,701.318 960,701.318 960,731.318 748.939,731.318 707.907,719.829 655.423,806.137 574.254,660.226 492.042,866.838 434.437,612.011 "
   id="polygon4"
   style="fill:#8c5cff;fill-opacity:1;stroke:#000000;stroke-width:10;stroke-linejoin:bevel;stroke-dasharray:none;stroke-opacity:1" />
	</g>
</g></g>
<g
   id="g2"
   transform="matrix(0.85120753,0,0,0.85120753,-180.35523,19.573158)" /><g
   id="g5"
   transform="translate(-8,44)"><text
     xml:space="preserve"
     style="font-style:normal;font-variant:normal;font-weight:normal;font-stretch:normal;font-size:432.462px;font-family:'Euro Caps';-inkscape-font-specification:'Euro Caps, Normal';font-variant-ligatures:normal;font-variant-caps:normal;font-variant-numeric:normal;font-variant-east-asian:normal;text-align:start;writing-mode:lr-tb;direction:ltr;text-anchor:start;fill:#ffffff;fill-opacity:1;stroke:#000000;stroke-width:19.8327;stroke-linejoin:bevel;stroke-dasharray:none;paint-order:stroke fill markers"
     x="671.7348"
     y="272.2106"
     id="text1"
     transform="scale(0.96209536,1.039398)"><tspan
       sodipodi:role="line"
       id="tspan1"
       x="671.7348"
       y="272.2106"
       style="font-style:normal;font-variant:normal;font-weight:normal;font-stretch:normal;font-size:432.462px;font-family:'Euro Caps';-inkscape-font-specification:'Euro Caps, Normal';font-variant-ligatures:normal;font-variant-caps:normal;font-variant-numeric:normal;font-variant-east-asian:normal;fill:#ffffff;fill-opacity:1;stroke-width:19.8327;stroke-dasharray:none"
       dx="0 -27.999104 -30.332361 -23.332586 -11.666293 -13.999552 -30.332361 -4.6665173">GHOSTNET</tspan></text><text
     xml:space="preserve"
     style="font-style:normal;font-variant:normal;font-weight:normal;font-stretch:normal;font-size:210.058px;font-family:'Euro Caps';-inkscape-font-specification:'Euro Caps, Normal';font-variant-ligatures:normal;font-variant-caps:normal;font-variant-numeric:normal;font-variant-east-asian:normal;text-align:start;writing-mode:lr-tb;direction:ltr;text-anchor:start;fill:#ffffff;fill-opacity:1;stroke:#000000;stroke-width:13.0575;stroke-linejoin:bevel;stroke-dasharray:none;paint-order:stroke fill markers"
     x="667.43073"
     y="461.81253"
     id="text1-9"
     transform="scale(1.0156951,0.98454743)"><tspan
       sodipodi:role="line"
       id="tspan1-4"
       x="667.43073"
       y="461.81253"
       style="font-style:normal;font-variant:normal;font-weight:normal;font-stretch:normal;font-size:210.058px;font-family:'Euro Caps';-inkscape-font-specification:'Euro Caps, Normal';font-variant-ligatures:normal;font-variant-caps:normal;font-variant-numeric:normal;font-variant-east-asian:normal;fill:#ffffff;fill-opacity:1;stroke-width:13.0575;stroke-dasharray:none"
       dx="0 0 0 0 0 0 0 0 0 0 0 -26.11496 -8.7049866 -8.7049866 -5.2229919 -5.2229919 -5.2229919 -5.2229919 -8.7049866">A.T.L.A.S. PROTOCOL</tspan></text></g></svg>
